<svg width="1416" height="953" viewBox="0 0 1416 953" fill="none" xmlns="http://www.w3.org/2000/svg">
<rect width="1416" height="953" fill=""/>
<path d="M768.62 948.76C984.105 948.76 1158.79 940.379 1158.79 930.04C1158.79 919.701 984.105 911.32 768.62 911.32C553.135 911.32 378.45 919.701 378.45 930.04C378.45 940.379 553.135 948.76 768.62 948.76Z" fill="#E6E7E8"/>
<path d="M1272.52 96.96C1272.52 72.23 1252.29 52 1227.56 52H311.28C286.55 52 266.32 72.23 266.32 96.96V199.2H1272.53V96.96H1272.52Z" fill="#E6E7E8"/>
<path fill-rule="evenodd" clip-rule="evenodd" d="M263.5 202.01H1275.32V96.9599C1275.32 70.6199 1253.89 49.1899 1227.55 49.1899H311.27C284.93 49.1899 263.5 70.6199 263.5 96.9599V202.01ZM1269.71 196.39H269.13V96.9599C269.13 73.7199 288.04 54.8099 311.28 54.8099H1227.56C1250.8 54.8099 1269.71 73.7199 1269.71 96.9599V196.39Z" fill="#1A4A67"/>
<path d="M1272.52 766.53V199.2H266.31V810.24H1228.81C1252.95 810.24 1272.52 790.67 1272.52 766.53Z" fill="#E6E7E8"/>
<path fill-rule="evenodd" clip-rule="evenodd" d="M263.5 813.05H1228.81C1254.46 813.05 1275.33 792.18 1275.33 766.53V196.39H263.5V813.05ZM1228.81 807.43H269.12V202.01H1269.71V766.53C1269.71 789.08 1251.36 807.43 1228.81 807.43Z" fill="#1A4A67"/>
<path d="M453.81 392.42H364.22C351.17 392.42 340.49 381.74 340.49 368.69V287.66C340.49 274.61 351.17 263.93 364.22 263.93H453.81C466.86 263.93 477.54 274.61 477.54 287.66V368.69C477.54 381.74 466.86 392.42 453.81 392.42Z" fill="white"/>
<path d="M692.96 392.42H603.37C590.32 392.42 579.64 381.74 579.64 368.69V287.66C579.64 274.61 590.32 263.93 603.37 263.93H692.96C706.01 263.93 716.69 274.61 716.69 287.66V368.69C716.69 381.74 706.01 392.42 692.96 392.42Z" fill="white"/>
<path fill-rule="evenodd" clip-rule="evenodd" d="M603.38 395.23H692.96C707.59 395.23 719.5 383.33 719.5 368.69V287.66C719.5 273.02 707.59 261.12 692.96 261.12H603.38C588.75 261.12 576.84 273.03 576.84 287.66V368.69C576.84 383.32 588.75 395.23 603.38 395.23ZM582.46 287.66C582.46 276.12 591.85 266.74 603.38 266.74H692.96C704.5 266.74 713.88 276.13 713.88 287.66V368.69C713.88 380.23 704.49 389.61 692.96 389.61H603.38C591.85 389.61 582.46 380.22 582.46 368.69V287.66Z" fill="#1A4A67"/>
<path d="M932.11 392.42H842.52C829.47 392.42 818.79 381.74 818.79 368.69V287.66C818.79 274.61 829.47 263.93 842.52 263.93H932.11C945.16 263.93 955.84 274.61 955.84 287.66V368.69C955.84 381.74 945.16 392.42 932.11 392.42Z" fill="white"/>
<path d="M1171.26 392.42H1081.67C1068.62 392.42 1057.94 381.74 1057.94 368.69V287.66C1057.94 274.61 1068.62 263.93 1081.67 263.93H1171.26C1184.31 263.93 1194.99 274.61 1194.99 287.66V368.69C1194.99 381.74 1184.31 392.42 1171.26 392.42Z" fill="white"/>
<path d="M453.81 565.22H364.22C351.17 565.22 340.49 554.54 340.49 541.49V460.46C340.49 447.41 351.17 436.73 364.22 436.73H453.81C466.86 436.73 477.54 447.41 477.54 460.46V541.49C477.54 554.54 466.86 565.22 453.81 565.22Z" fill="white"/>
<path fill-rule="evenodd" clip-rule="evenodd" d="M364.23 568.03H453.81C468.44 568.03 480.35 556.13 480.35 541.49V460.46C480.35 445.82 468.44 433.92 453.81 433.92H364.23C349.6 433.92 337.69 445.83 337.69 460.46V541.49C337.69 556.13 349.6 568.03 364.23 568.03ZM343.3 460.46C343.3 448.92 352.69 439.54 364.22 439.54H453.8C465.34 439.54 474.72 448.93 474.72 460.46V541.49C474.72 553.03 465.33 562.41 453.8 562.41H364.22C352.69 562.41 343.3 553.02 343.3 541.49V460.46Z" fill="#1A4A67"/>
<path d="M692.96 565.22H603.37C590.32 565.22 579.64 554.54 579.64 541.49V460.46C579.64 447.41 590.32 436.73 603.37 436.73H692.96C706.01 436.73 716.69 447.41 716.69 460.46V541.49C716.69 554.54 706.01 565.22 692.96 565.22Z" fill="white"/>
<path d="M932.11 565.22H842.52C829.47 565.22 818.79 554.54 818.79 541.49V460.46C818.79 447.41 829.47 436.73 842.52 436.73H932.11C945.16 436.73 955.84 447.41 955.84 460.46V541.49C955.84 554.54 945.16 565.22 932.11 565.22Z" fill="white"/>
<path d="M1171.26 565.22H1081.67C1068.62 565.22 1057.94 554.54 1057.94 541.49V460.46C1057.94 447.41 1068.62 436.73 1081.67 436.73H1171.26C1184.31 436.73 1194.99 447.41 1194.99 460.46V541.49C1194.99 554.54 1184.31 565.22 1171.26 565.22Z" fill="white"/>
<path d="M453.81 738.02H364.22C351.17 738.02 340.49 727.34 340.49 714.29V633.26C340.49 620.21 351.17 609.53 364.22 609.53H453.81C466.86 609.53 477.54 620.21 477.54 633.26V714.29C477.54 727.34 466.86 738.02 453.81 738.02Z" fill="white"/>
<path d="M692.96 738.02H603.37C590.32 738.02 579.64 727.34 579.64 714.29V633.26C579.64 620.21 590.32 609.53 603.37 609.53H692.96C706.01 609.53 716.69 620.21 716.69 633.26V714.29C716.69 727.34 706.01 738.02 692.96 738.02Z" fill="white"/>
<path d="M932.11 738.02H842.52C829.47 738.02 818.79 727.34 818.79 714.29V633.26C818.79 620.21 829.47 609.53 842.52 609.53H932.11C945.16 609.53 955.84 620.21 955.84 633.26V714.29C955.84 727.34 945.16 738.02 932.11 738.02Z" fill="white"/>
<path fill-rule="evenodd" clip-rule="evenodd" d="M842.53 740.83H932.11C946.74 740.83 958.65 728.93 958.65 714.29V633.26C958.65 618.62 946.74 606.72 932.11 606.72H842.53C827.9 606.72 815.99 618.63 815.99 633.26V714.29C815.99 728.93 827.9 740.83 842.53 740.83ZM821.61 633.26C821.61 621.72 831 612.34 842.53 612.34H932.11C943.65 612.34 953.03 621.73 953.03 633.26V714.29C953.03 725.83 943.64 735.21 932.11 735.21H842.53C831 735.21 821.61 725.82 821.61 714.29V633.26Z" fill="#1A4A67"/>
<path d="M1171.26 738.02H1081.67C1068.62 738.02 1057.94 727.34 1057.94 714.29V633.26C1057.94 620.21 1068.62 609.53 1081.67 609.53H1171.26C1184.31 609.53 1194.99 620.21 1194.99 633.26V714.29C1194.99 727.34 1184.31 738.02 1171.26 738.02Z" fill="white"/>
<path d="M494.56 153.27C513.117 153.27 528.16 138.227 528.16 119.67C528.16 101.113 513.117 86.0701 494.56 86.0701C476.003 86.0701 460.96 101.113 460.96 119.67C460.96 138.227 476.003 153.27 494.56 153.27Z" fill="#1A4A67"/>
<path d="M495.88 134.49C485.69 134.49 477.35 126.15 477.35 115.96V21.83C477.35 11.64 485.69 3.30005 495.88 3.30005C506.07 3.30005 514.41 11.64 514.41 21.83V115.96C514.41 126.16 506.08 134.49 495.88 134.49Z" fill="#37C1D3"/>
<path fill-rule="evenodd" clip-rule="evenodd" d="M474.55 115.96C474.55 127.73 484.12 137.3 495.89 137.3C507.65 137.3 517.22 127.73 517.23 115.96V21.83C517.23 10.06 507.65 0.48999 495.89 0.48999C484.12 0.48999 474.55 10.06 474.55 21.83V115.96ZM480.17 21.84C480.17 13.17 487.22 6.11999 495.89 6.11999C504.55 6.11999 511.6 13.17 511.61 21.84V115.97C511.61 124.64 504.55 131.69 495.89 131.69C487.22 131.69 480.17 124.64 480.17 115.97V21.84Z" fill="#1A4A67"/>
<path d="M677.16 153.27C695.717 153.27 710.76 138.227 710.76 119.67C710.76 101.113 695.717 86.0701 677.16 86.0701C658.603 86.0701 643.56 101.113 643.56 119.67C643.56 138.227 658.603 153.27 677.16 153.27Z" fill="#1A4A67"/>
<path d="M678.49 134.49C668.3 134.49 659.96 126.15 659.96 115.96V21.83C659.96 11.64 668.3 3.30005 678.49 3.30005C688.68 3.30005 697.02 11.64 697.02 21.83V115.96C697.01 126.16 688.68 134.49 678.49 134.49Z" fill="#37C1D3"/>
<path fill-rule="evenodd" clip-rule="evenodd" d="M657.14 115.96C657.14 127.73 666.72 137.3 678.48 137.3C690.25 137.3 699.82 127.73 699.82 115.96V21.83C699.82 10.06 690.25 0.48999 678.48 0.48999C666.71 0.48999 657.14 10.06 657.14 21.83V115.96ZM662.76 21.84C662.76 13.17 669.81 6.11999 678.48 6.11999C687.15 6.11999 694.2 13.17 694.2 21.84V115.97C694.2 124.64 687.15 131.69 678.48 131.69C669.81 131.69 662.76 124.64 662.76 115.97V21.84Z" fill="#1A4A67"/>
<path d="M859.77 153.27C878.327 153.27 893.37 138.227 893.37 119.67C893.37 101.113 878.327 86.0701 859.77 86.0701C841.213 86.0701 826.17 101.113 826.17 119.67C826.17 138.227 841.213 153.27 859.77 153.27Z" fill="#1A4A67"/>
<path d="M861.09 134.49C850.9 134.49 842.56 126.15 842.56 115.96V21.83C842.56 11.64 850.9 3.30005 861.09 3.30005C871.28 3.30005 879.62 11.64 879.62 21.83V115.96C879.62 126.16 871.28 134.49 861.09 134.49Z" fill="#37C1D3"/>
<path fill-rule="evenodd" clip-rule="evenodd" d="M839.75 115.96C839.75 127.73 849.32 137.3 861.09 137.3C872.85 137.3 882.43 127.73 882.43 115.96V21.83C882.43 10.06 872.86 0.48999 861.09 0.48999C849.32 0.48999 839.75 10.06 839.75 21.83V115.96ZM845.37 21.84C845.37 13.17 852.42 6.11999 861.09 6.11999C869.75 6.11999 876.81 13.17 876.81 21.84V115.97C876.81 124.64 869.76 131.69 861.09 131.69C852.42 131.69 845.37 124.64 845.37 115.97V21.84Z" fill="#1A4A67"/>
<path d="M1042.37 153.27C1060.93 153.27 1075.97 138.227 1075.97 119.67C1075.97 101.113 1060.93 86.0701 1042.37 86.0701C1023.81 86.0701 1008.77 101.113 1008.77 119.67C1008.77 138.227 1023.81 153.27 1042.37 153.27Z" fill="#1A4A67"/>
<path d="M1043.69 134.49C1033.5 134.49 1025.16 126.15 1025.16 115.96V21.83C1025.16 11.64 1033.5 3.30005 1043.69 3.30005C1053.88 3.30005 1062.22 11.64 1062.22 21.83V115.96C1062.22 126.16 1053.88 134.49 1043.69 134.49Z" fill="#37C1D3"/>
<path fill-rule="evenodd" clip-rule="evenodd" d="M1022.35 115.96C1022.35 127.73 1031.92 137.3 1043.69 137.3C1055.46 137.3 1065.03 127.73 1065.03 115.96V21.83C1065.03 10.06 1055.46 0.48999 1043.69 0.48999C1031.92 0.48999 1022.35 10.06 1022.35 21.83V115.96ZM1027.97 21.84C1027.97 13.17 1035.02 6.11999 1043.69 6.11999C1052.36 6.11999 1059.41 13.17 1059.41 21.84V115.97C1059.41 124.64 1052.36 131.69 1043.69 131.69C1035.02 131.69 1027.97 124.64 1027.97 115.97V21.84Z" fill="#1A4A67"/>
<path d="M459.67 471.88C457.94 470.15 455.11 470.15 453.38 471.88L397.13 528.13L403.42 534.42L459.67 478.17C461.4 476.44 461.4 473.61 459.67 471.88Z" fill="#37C1D3"/>
<path d="M393.98 531.28L397.12 528.13L371.68 502.69C369.95 500.96 367.12 500.96 365.39 502.69C363.66 504.42 363.66 507.25 365.39 508.98L393.98 537.57C392.25 535.84 392.25 533.01 393.98 531.28Z" fill="#37C1D3"/>
<path d="M393.98 531.28C392.25 533.01 392.25 535.84 393.98 537.57C395.71 539.3 398.54 539.3 400.27 537.57L403.41 534.43L397.12 528.14L393.98 531.28Z" fill="#37C1D3"/>
<path fill-rule="evenodd" clip-rule="evenodd" d="M866.78 708.61C868.14 709.98 869.97 710.73 871.91 710.73C873.86 710.73 875.68 709.97 877.03 708.61L936.43 649.21C937.8 647.85 938.55 646.02 938.55 644.08C938.55 642.14 937.8 640.32 936.43 638.95C933.7 636.22 928.91 636.21 926.17 638.95L871.91 693.22L848.45 669.76C845.62 666.93 841.02 666.93 838.19 669.76C835.36 672.59 835.36 677.19 838.19 680.02L866.78 708.61ZM842.17 673.73C842.49 673.41 842.91 673.25 843.33 673.25C843.74 673.25 844.17 673.41 844.49 673.72L871.92 701.15L930.16 642.91C930.78 642.3 931.87 642.3 932.48 642.91C932.79 643.22 932.96 643.63 932.96 644.07C932.96 644.51 932.79 644.92 932.48 645.23L873.08 704.63C872.46 705.24 871.37 705.24 870.76 704.63L842.17 676.04C841.54 675.42 841.54 674.36 842.17 673.73Z" fill="#37C1D3"/>
<path d="M695.3 295.33C693.57 293.6 690.74 293.6 689.01 295.33L632.76 351.58L639.05 357.87L695.3 301.62C697.03 299.89 697.03 297.06 695.3 295.33Z" fill="#37C1D3"/>
<path d="M629.62 354.73L632.76 351.58L607.32 326.14C605.59 324.41 602.76 324.41 601.03 326.14C599.3 327.87 599.3 330.7 601.03 332.43L629.62 361.02C627.89 359.29 627.89 356.46 629.62 354.73Z" fill="#37C1D3"/>
<path d="M629.62 354.73C627.89 356.46 627.89 359.29 629.62 361.02C631.35 362.75 634.18 362.75 635.91 361.02L639.05 357.88L632.76 351.59L629.62 354.73Z" fill="#37C1D3"/>
<path d="M694.8 468.93H601.54C598.6 468.93 596.2 466.53 596.2 463.59C596.2 460.65 598.6 458.25 601.54 458.25H694.8C697.74 458.25 700.14 460.65 700.14 463.59C700.13 466.53 697.73 468.93 694.8 468.93Z" fill="#E6E7E8"/>
<path d="M694.8 494.87H601.54C598.6 494.87 596.2 492.47 596.2 489.53C596.2 486.59 598.6 484.19 601.54 484.19H694.8C697.74 484.19 700.14 486.59 700.14 489.53C700.13 492.47 697.73 494.87 694.8 494.87Z" fill="#E6E7E8"/>
<path d="M694.8 520.81H601.54C598.6 520.81 596.2 518.41 596.2 515.47C596.2 512.53 598.6 510.13 601.54 510.13H694.8C697.74 510.13 700.14 512.53 700.14 515.47C700.13 518.41 697.73 520.81 694.8 520.81Z" fill="#E6E7E8"/>
<path d="M694.8 546.75H601.54C598.6 546.75 596.2 544.35 596.2 541.41C596.2 538.47 598.6 536.07 601.54 536.07H694.8C697.74 536.07 700.14 538.47 700.14 541.41C700.13 544.35 697.73 546.75 694.8 546.75Z" fill="#E6E7E8"/>
<path d="M455.65 643.1H362.39C359.45 643.1 357.05 640.7 357.05 637.76C357.05 634.82 359.45 632.42 362.39 632.42H455.65C458.59 632.42 460.99 634.82 460.99 637.76C460.98 640.7 458.58 643.1 455.65 643.1Z" fill="#E6E7E8"/>
<path d="M455.65 669.04H362.39C359.45 669.04 357.05 666.64 357.05 663.7C357.05 660.76 359.45 658.36 362.39 658.36H455.65C458.59 658.36 460.99 660.76 460.99 663.7C460.98 666.64 458.58 669.04 455.65 669.04Z" fill="#E6E7E8"/>
<path d="M455.65 694.98H362.39C359.45 694.98 357.05 692.58 357.05 689.64C357.05 686.7 359.45 684.3 362.39 684.3H455.65C458.59 684.3 460.99 686.7 460.99 689.64C460.98 692.58 458.58 694.98 455.65 694.98Z" fill="#E6E7E8"/>
<path d="M455.65 720.93H362.39C359.45 720.93 357.05 718.53 357.05 715.59C357.05 712.65 359.45 710.25 362.39 710.25H455.65C458.59 710.25 460.99 712.65 460.99 715.59C460.98 718.52 458.58 720.93 455.65 720.93Z" fill="#E6E7E8"/>
<path d="M1174.56 294.6H1081.3C1078.36 294.6 1075.96 292.2 1075.96 289.26C1075.96 286.32 1078.36 283.92 1081.3 283.92H1174.56C1177.5 283.92 1179.9 286.32 1179.9 289.26C1179.9 292.2 1177.5 294.6 1174.56 294.6Z" fill="#E6E7E8"/>
<path d="M1174.56 320.54H1081.3C1078.36 320.54 1075.96 318.14 1075.96 315.2C1075.96 312.26 1078.36 309.86 1081.3 309.86H1174.56C1177.5 309.86 1179.9 312.26 1179.9 315.2C1179.9 318.14 1177.5 320.54 1174.56 320.54Z" fill="#E6E7E8"/>
<path d="M1174.56 346.48H1081.3C1078.36 346.48 1075.96 344.08 1075.96 341.14C1075.96 338.2 1078.36 335.8 1081.3 335.8H1174.56C1177.5 335.8 1179.9 338.2 1179.9 341.14C1179.9 344.08 1177.5 346.48 1174.56 346.48Z" fill="#E6E7E8"/>
<path d="M1174.56 372.42H1081.3C1078.36 372.42 1075.96 370.02 1075.96 367.08C1075.96 364.14 1078.36 361.74 1081.3 361.74H1174.56C1177.5 361.74 1179.9 364.14 1179.9 367.08C1179.9 370.02 1177.5 372.42 1174.56 372.42Z" fill="#E6E7E8"/>
<path d="M933.95 294.6H840.69C837.75 294.6 835.35 292.2 835.35 289.26C835.35 286.32 837.75 283.92 840.69 283.92H933.95C936.89 283.92 939.29 286.32 939.29 289.26C939.29 292.2 936.88 294.6 933.95 294.6Z" fill="#E6E7E8"/>
<path d="M933.95 320.54H840.69C837.75 320.54 835.35 318.14 835.35 315.2C835.35 312.26 837.75 309.86 840.69 309.86H933.95C936.89 309.86 939.29 312.26 939.29 315.2C939.29 318.14 936.88 320.54 933.95 320.54Z" fill="#E6E7E8"/>
<path d="M933.95 346.48H840.69C837.75 346.48 835.35 344.08 835.35 341.14C835.35 338.2 837.75 335.8 840.69 335.8H933.95C936.89 335.8 939.29 338.2 939.29 341.14C939.29 344.08 936.88 346.48 933.95 346.48Z" fill="#E6E7E8"/>
<path d="M933.95 372.42H840.69C837.75 372.42 835.35 370.02 835.35 367.08C835.35 364.14 837.75 361.74 840.69 361.74H933.95C936.89 361.74 939.29 364.14 939.29 367.08C939.29 370.02 936.88 372.42 933.95 372.42Z" fill="#E6E7E8"/>
<path d="M933.95 467.82H840.69C837.75 467.82 835.35 465.42 835.35 462.48C835.35 459.54 837.75 457.14 840.69 457.14H933.95C936.89 457.14 939.29 459.54 939.29 462.48C939.29 465.42 936.88 467.82 933.95 467.82Z" fill="#E6E7E8"/>
<path d="M933.95 493.76H840.69C837.75 493.76 835.35 491.36 835.35 488.42C835.35 485.48 837.75 483.08 840.69 483.08H933.95C936.89 483.08 939.29 485.48 939.29 488.42C939.29 491.36 936.88 493.76 933.95 493.76Z" fill="#E6E7E8"/>
<path d="M933.95 519.7H840.69C837.75 519.7 835.35 517.3 835.35 514.36C835.35 511.42 837.75 509.02 840.69 509.02H933.95C936.89 509.02 939.29 511.42 939.29 514.36C939.29 517.3 936.88 519.7 933.95 519.7Z" fill="#E6E7E8"/>
<path d="M933.95 545.64H840.69C837.75 545.64 835.35 543.24 835.35 540.3C835.35 537.36 837.75 534.96 840.69 534.96H933.95C936.89 534.96 939.29 537.36 939.29 540.3C939.29 543.24 936.88 545.64 933.95 545.64Z" fill="#E6E7E8"/>
<path d="M1174.56 467.4H1081.3C1078.36 467.4 1075.96 465 1075.96 462.06C1075.96 459.12 1078.36 456.72 1081.3 456.72H1174.56C1177.5 456.72 1179.9 459.12 1179.9 462.06C1179.9 465 1177.5 467.4 1174.56 467.4Z" fill="#E6E7E8"/>
<path d="M1174.56 493.34H1081.3C1078.36 493.34 1075.96 490.94 1075.96 488C1075.96 485.06 1078.36 482.66 1081.3 482.66H1174.56C1177.5 482.66 1179.9 485.06 1179.9 488C1179.9 490.94 1177.5 493.34 1174.56 493.34Z" fill="#E6E7E8"/>
<path d="M1174.56 519.28H1081.3C1078.36 519.28 1075.96 516.88 1075.96 513.94C1075.96 511 1078.36 508.6 1081.3 508.6H1174.56C1177.5 508.6 1179.9 511 1179.9 513.94C1179.9 516.88 1177.5 519.28 1174.56 519.28Z" fill="#E6E7E8"/>
<path d="M1174.56 545.22H1081.3C1078.36 545.22 1075.96 542.82 1075.96 539.88C1075.96 536.94 1078.36 534.54 1081.3 534.54H1174.56C1177.5 534.54 1179.9 536.94 1179.9 539.88C1179.9 542.82 1177.5 545.22 1174.56 545.22Z" fill="#E6E7E8"/>
<path d="M1174.56 640.2H1081.3C1078.36 640.2 1075.96 637.8 1075.96 634.86C1075.96 631.92 1078.36 629.52 1081.3 629.52H1174.56C1177.5 629.52 1179.9 631.92 1179.9 634.86C1179.9 637.8 1177.5 640.2 1174.56 640.2Z" fill="#E6E7E8"/>
<path d="M1174.56 666.14H1081.3C1078.36 666.14 1075.96 663.74 1075.96 660.8C1075.96 657.86 1078.36 655.46 1081.3 655.46H1174.56C1177.5 655.46 1179.9 657.86 1179.9 660.8C1179.9 663.74 1177.5 666.14 1174.56 666.14Z" fill="#E6E7E8"/>
<path d="M1174.56 692.08H1081.3C1078.36 692.08 1075.96 689.68 1075.96 686.74C1075.96 683.8 1078.36 681.4 1081.3 681.4H1174.56C1177.5 681.4 1179.9 683.8 1179.9 686.74C1179.9 689.68 1177.5 692.08 1174.56 692.08Z" fill="#E6E7E8"/>
<path d="M1174.56 718.02H1081.3C1078.36 718.02 1075.96 715.62 1075.96 712.68C1075.96 709.74 1078.36 707.34 1081.3 707.34H1174.56C1177.5 707.34 1179.9 709.74 1179.9 712.68C1179.9 715.62 1177.5 718.02 1174.56 718.02Z" fill="#E6E7E8"/>
<path d="M694.8 640.2H601.54C598.6 640.2 596.2 637.8 596.2 634.86C596.2 631.92 598.6 629.52 601.54 629.52H694.8C697.74 629.52 700.14 631.92 700.14 634.86C700.13 637.8 697.73 640.2 694.8 640.2Z" fill="#E6E7E8"/>
<path d="M694.8 666.14H601.54C598.6 666.14 596.2 663.74 596.2 660.8C596.2 657.86 598.6 655.46 601.54 655.46H694.8C697.74 655.46 700.14 657.86 700.14 660.8C700.13 663.74 697.73 666.14 694.8 666.14Z" fill="#E6E7E8"/>
<path d="M694.8 692.08H601.54C598.6 692.08 596.2 689.68 596.2 686.74C596.2 683.8 598.6 681.4 601.54 681.4H694.8C697.74 681.4 700.14 683.8 700.14 686.74C700.13 689.68 697.73 692.08 694.8 692.08Z" fill="#E6E7E8"/>
<path d="M694.8 718.02H601.54C598.6 718.02 596.2 715.62 596.2 712.68C596.2 709.74 598.6 707.34 601.54 707.34H694.8C697.74 707.34 700.14 709.74 700.14 712.68C700.13 715.62 697.73 718.02 694.8 718.02Z" fill="#E6E7E8"/>
<path d="M455.65 291.7H362.39C359.45 291.7 357.05 289.3 357.05 286.36C357.05 283.42 359.45 281.02 362.39 281.02H455.65C458.59 281.02 460.99 283.42 460.99 286.36C460.98 289.3 458.58 291.7 455.65 291.7Z" fill="#E6E7E8"/>
<path d="M455.65 317.64H362.39C359.45 317.64 357.05 315.24 357.05 312.3C357.05 309.36 359.45 306.96 362.39 306.96H455.65C458.59 306.96 460.99 309.36 460.99 312.3C460.98 315.24 458.58 317.64 455.65 317.64Z" fill="#E6E7E8"/>
<path d="M455.65 343.58H362.39C359.45 343.58 357.05 341.18 357.05 338.24C357.05 335.3 359.45 332.9 362.39 332.9H455.65C458.59 332.9 460.99 335.3 460.99 338.24C460.98 341.18 458.58 343.58 455.65 343.58Z" fill="#E6E7E8"/>
<path d="M455.65 369.52H362.39C359.45 369.52 357.05 367.12 357.05 364.18C357.05 361.24 359.45 358.84 362.39 358.84H455.65C458.59 358.84 460.99 361.24 460.99 364.18C460.98 367.12 458.58 369.52 455.65 369.52Z" fill="#E6E7E8"/>
<path d="M1151.22 471.66C1148.44 468.88 1143.9 468.88 1141.12 471.66L1050.77 562.01L1060.87 572.11L1151.22 481.76C1154 478.99 1154 474.44 1151.22 471.66Z" fill="#37C1D3"/>
<path d="M1045.72 567.07L1050.77 562.02L1009.9 521.15C1007.12 518.37 1002.58 518.37 999.8 521.15C997.02 523.93 997.02 528.47 999.8 531.25L1045.72 577.17C1042.94 574.39 1042.94 569.85 1045.72 567.07Z" fill="#37C1D3"/>
<path d="M1045.72 567.07C1042.94 569.85 1042.94 574.39 1045.72 577.17C1048.5 579.95 1053.04 579.95 1055.82 577.17L1060.87 572.12L1050.77 562.02L1045.72 567.07Z" fill="#37C1D3"/>
<path d="M99.88 694.88C104 694.88 107.34 691.54 107.34 687.42C107.34 683.3 104 679.96 99.88 679.96C95.76 679.96 92.42 683.3 92.42 687.42C92.42 691.54 95.76 694.88 99.88 694.88Z" fill="#8BDEEC"/>
<path d="M97.7901 658.53C101.91 658.53 105.25 655.19 105.25 651.07C105.25 646.95 101.91 643.61 97.7901 643.61C93.67 643.61 90.3301 646.95 90.3301 651.07C90.3301 655.19 93.67 658.53 97.7901 658.53Z" fill="#8BDEEC"/>
<path d="M61.1401 672.08C65.2601 672.08 68.6001 668.74 68.6001 664.62C68.6001 660.5 65.2601 657.16 61.1401 657.16C57.02 657.16 53.6801 660.5 53.6801 664.62C53.6801 668.74 57.02 672.08 61.1401 672.08Z" fill="#8BDEEC"/>
<path d="M328.27 709.54H162.98C143.03 709.54 126.71 693.22 126.71 673.27C126.71 653.32 143.03 637 162.98 637H328.27C348.22 637 364.54 653.32 364.54 673.27C364.54 693.22 348.22 709.54 328.27 709.54Z" fill="#8BDEEC"/>
<path fill-rule="evenodd" clip-rule="evenodd" d="M144.07 673.28C144.07 688.99 156.86 701.78 172.58 701.78C188.3 701.78 201.08 688.99 201.08 673.28C201.08 657.57 188.3 644.78 172.58 644.78C156.86 644.78 144.07 657.56 144.07 673.28ZM149.7 673.27C149.7 660.66 159.96 650.39 172.58 650.39C185.2 650.39 195.46 660.66 195.46 673.27C195.46 685.88 185.19 696.15 172.58 696.15C159.97 696.15 149.7 685.88 149.7 673.27Z" fill="white"/>
<rect x="169.03" y="686.3" width="5.62" height="7.18" fill="white"/>
<rect x="169.03" y="653.15" width="5.62" height="7.18" fill="white"/>
<rect x="170.785" y="671.125" width="20.0504" height="5.6201" transform="rotate(-40.2098 170.785 671.125)" fill="white"/>
<path d="M201.86 606.14H36.56C16.61 606.14 0.290039 589.82 0.290039 569.87C0.290039 549.92 16.61 533.6 36.56 533.6H201.85C221.8 533.6 238.12 549.92 238.12 569.87C238.13 589.81 221.81 606.14 201.86 606.14Z" fill="#E6E7E8"/>
<path d="M81.8301 549.43C80.9501 548.55 79.5201 548.55 78.6501 549.43L50.1801 577.9L53.3601 581.08L81.8301 552.61C82.7101 551.74 82.7101 550.31 81.8301 549.43Z" fill="white"/>
<path d="M48.5901 579.49L50.1801 577.9L37.3001 565.02C36.4201 564.14 34.9901 564.14 34.1201 565.02C33.2401 565.9 33.2401 567.33 34.1201 568.2L48.5901 582.67C47.7101 581.8 47.7101 580.37 48.5901 579.49Z" fill="white"/>
<path d="M48.5901 579.49C47.7101 580.37 47.7101 581.8 48.5901 582.67C49.4701 583.55 50.9001 583.55 51.7701 582.67L53.3601 581.08L50.1801 577.9L48.5901 579.49Z" fill="white"/>
<path d="M1269.46 596.52C1269.46 596.52 1239.6 649.16 1191.48 635.99C1143.36 622.82 1109.99 553.43 1095.62 561.14C1081.25 568.85 1046.9 556.95 1085.3 546.18C1102.93 541.23 1105.57 541.99 1107.59 543.44C1134.19 562.53 1165.22 592.22 1181.46 606.14C1198.94 621.12 1220.78 610.33 1240.76 599.09C1260.75 587.85 1336.87 563.99 1269.46 596.52Z" fill="white"/>
<path fill-rule="evenodd" clip-rule="evenodd" d="M1190.74 638.7C1196.31 640.22 1201.64 640.9 1206.72 640.9C1243.98 640.9 1267.86 604.52 1271.44 598.67C1299.35 585.16 1299.47 582.96 1299.58 580.83C1299.64 579.63 1299.06 578.53 1298.02 577.89C1292.28 574.31 1248.97 591.24 1239.38 596.63C1218.8 608.2 1199.03 617.48 1183.29 603.99C1178.89 600.22 1173.45 595.34 1167.16 589.68C1150.03 574.28 1128.71 555.12 1109.23 541.14C1106.08 538.89 1102.61 538.39 1084.54 543.46C1072.23 546.92 1065.84 550.88 1065 555.57C1064.73 557.03 1064.81 559.86 1068.26 562.36C1074.24 566.69 1088.37 568.22 1096.95 563.61C1101.19 561.334 1111.97 573.56 1122.41 585.391L1122.46 585.45C1139.4 604.67 1162.61 631 1190.74 638.7ZM1126.68 581.73C1114.3 567.69 1105.48 557.69 1098.1 557.69C1096.79 557.69 1095.53 558 1094.29 558.66C1087.44 562.33 1075.64 560.77 1071.56 557.81C1070.91 557.33 1070.48 556.82 1070.53 556.56C1070.56 556.42 1071.33 553.01 1086.06 548.88C1103.53 543.98 1105.11 545.11 1105.96 545.72C1125.12 559.471 1146.23 578.433 1163.23 593.705L1163.41 593.87C1169.72 599.55 1175.18 604.46 1179.63 608.27C1199.66 625.43 1225.23 611.06 1242.14 601.54C1252.27 595.84 1273.9 588.17 1286.44 584.7C1282.58 586.85 1276.82 589.85 1268.24 593.99L1267.45 594.37L1267.02 595.13C1266.73 595.64 1237.7 645.72 1192.23 633.27C1165.74 626.025 1143.19 600.453 1126.71 581.766L1126.68 581.73Z" fill="#1A4A67"/>
<path d="M917.3 874.26L881.12 915.58L893.69 929.09L928.87 883.74C928.88 883.74 923.08 875.38 917.3 874.26Z" fill="white"/>
<path fill-rule="evenodd" clip-rule="evenodd" d="M877.34 915.64L893.89 933.43L932.35 883.85L931.18 882.15C930.52 881.19 924.53 872.8 917.83 871.51L916.25 871.2L877.34 915.64ZM893.5 924.76L884.91 915.52L918.2 877.51C920.69 878.66 923.45 881.4 925.34 883.72L893.5 924.76Z" fill="#1A4A67"/>
<path d="M800.83 891.4C800.83 891.4 811.45 903.03 835.49 918.62C859.52 934.21 886.97 950.47 894.09 949.54C901.21 948.61 921.81 918.79 913.46 914.22C905.11 909.64 895.24 919.95 886.42 901.09C878.87 884.94 859.24 896.83 834.73 889.44C810.22 882.04 800.3 879.02 800.83 891.4Z" fill="#A7A9AC"/>
<path fill-rule="evenodd" clip-rule="evenodd" d="M833.96 920.98C866.09 941.83 886.14 952.38 893.62 952.38C893.92 952.38 894.2 952.36 894.47 952.33C901.91 951.36 916.05 931.23 917.97 920.99C919.08 915.07 916.47 912.67 914.82 911.76C911.31 909.83 907.67 910.01 904.46 910.17L904.457 910.17C898.608 910.46 894.009 910.688 888.97 899.9C883.75 888.74 873.66 888.98 861.94 889.26C854.1 889.45 845.2 889.66 835.38 886.7C816.2 880.91 806.56 878 801.31 882.09C798.91 883.96 797.84 887.04 798.03 891.53L798.07 892.55L798.76 893.3C799.2 893.78 809.9 905.37 833.96 920.98ZM837.02 916.26C817.04 903.3 806.37 893.03 803.63 890.25C803.65 888.34 804.03 887.09 804.75 886.51C807.71 884.21 819.2 887.67 833.91 892.11C844.421 895.287 854.203 895.051 862.049 894.861L862.07 894.86C874 894.57 880.37 894.78 883.87 902.27C890.51 916.47 898.39 916.09 904.73 915.77C907.54 915.63 909.99 915.51 912.11 916.67C912.73 917.02 912.69 918.59 912.43 919.94C910.53 930.05 897.08 946.31 893.73 946.75C889.96 947.25 872.88 939.53 837.02 916.26Z" fill="#1A4A67"/>
<path d="M1039.96 742.4C1036.14 742.38 1032.21 742.41 1028.7 743.91C1024.81 745.57 1021.88 748.85 1019.08 752.02C999.03 774.65 978.3 796.68 956.91 818.05C936.14 838.81 914.33 859.26 888.1 872.46C890.27 876.68 895.03 878.75 899.34 880.75C917.07 888.96 932.93 901.18 945.4 916.21C946.57 904.6 951.97 893.47 960.36 885.37C966.35 879.59 973.67 875.42 980.67 870.91C1012.17 850.6 1038.06 822.69 1068.58 800.94C1069.95 799.97 1071.36 798.99 1072.98 798.53C1075.1 797.93 1077.37 798.28 1079.54 798.63C1127.37 806.28 1175.76 810.42 1224.19 811C1235.39 811.13 1249.36 809.2 1252.9 798.58C1267.21 755.65 1118.57 746.4 1099.39 744.89C1080.52 743.41 1058.79 739.93 1039.96 742.4Z" fill="white"/>
<path fill-rule="evenodd" clip-rule="evenodd" d="M943.23 918L947.52 923.17L948.18 916.49C949.27 905.6 954.42 894.99 962.3 887.39C966.99 882.86 972.74 879.23 978.31 875.72C978.74 875.447 979.172 875.174 979.603 874.902C980.465 874.357 981.327 873.813 982.18 873.26C999.682 861.975 1015.66 848.202 1031.11 834.877L1031.13 834.86C1043.65 824.07 1056.59 812.92 1070.2 803.22C1071.52 802.28 1072.61 801.54 1073.73 801.22C1075.28 800.78 1077.22 801.09 1079.09 801.39C1126.91 809.04 1175.72 813.22 1224.15 813.8C1241.76 814.01 1252.32 809.19 1255.56 799.46C1257.62 793.28 1256.83 787.39 1253.21 781.95C1240.19 762.4 1188.09 748.69 1102.52 742.31L1099.6 742.09C1095.25 741.75 1090.74 741.3 1086.15 740.84C1070.59 739.29 1054.52 737.69 1039.78 739.59C1036.17 739.57 1031.68 739.58 1027.59 741.33C1023.09 743.26 1019.84 746.92 1016.97 750.16C997.06 772.65 976.18 794.82 954.92 816.07C934.91 836.06 913.18 856.7 886.83 869.95L884.29 871.22L885.59 873.74C888.13 878.66 893.19 881 897.65 883.06L898.15 883.29C915.46 891.31 931.04 903.31 943.23 918ZM900 877.97C897.19 876.67 894.3 875.33 892.32 873.44C918.07 859.8 939.31 839.61 958.88 820.04C980.22 798.71 1001.18 776.45 1021.17 753.88C1023.76 750.95 1026.45 747.92 1029.79 746.49C1032.66 745.26 1035.97 745.18 1039.93 745.2H1040.12L1040.31 745.18C1054.43 743.336 1070.18 744.9 1085.44 746.416L1085.59 746.43C1090.22 746.89 1094.77 747.34 1099.16 747.69L1102.1 747.91C1213.52 756.22 1241.67 774.75 1248.53 785.06C1251.17 789.03 1251.73 793.16 1250.22 797.68C1247.26 806.58 1234.53 808.3 1224.21 808.18C1176.05 807.6 1127.53 803.45 1079.97 795.84C1077.73 795.48 1074.93 795.03 1072.19 795.81C1070.05 796.42 1068.25 797.7 1066.93 798.64C1053.16 808.446 1040.18 819.64 1027.62 830.464L1027.45 830.61L1027.41 830.642C1012.11 843.832 996.286 857.479 979.12 868.54C978.156 869.168 977.179 869.784 976.2 870.401C975.9 870.591 975.6 870.78 975.3 870.97L975.072 871.114C969.343 874.739 963.423 878.485 958.39 883.35C951.05 890.44 945.82 899.86 943.57 909.85C931.52 896.6 916.73 885.72 900.5 878.2L900 877.97Z" fill="#1A4A67"/>
<path d="M1282.95 539.3C1263.31 546.73 1241.31 572 1234.28 582.42C1212.82 614.18 1226.02 643.54 1194.5 689.68C1191.46 694.13 1192.49 700.59 1194.47 705.6C1197.38 712.97 1205.46 716.62 1212.69 719.85C1241.07 732.56 1267.41 749.83 1290.37 770.79C1303.29 708.43 1311.48 645.09 1314.85 581.49C1315.39 571.26 1315.73 560.61 1311.55 551.15C1305.14 536.72 1294.45 534.95 1282.95 539.3Z" fill="#37C1D3"/>
<path fill-rule="evenodd" clip-rule="evenodd" d="M1288.48 772.88L1292.12 776.21L1293.13 771.38C1306.05 709.06 1314.3 645.23 1317.66 581.66C1318.27 570.11 1318.42 559.75 1314.12 550.03C1307.78 535.74 1296.66 531.12 1281.97 536.68C1261.7 544.35 1239.15 570.22 1231.97 580.85C1221.96 595.67 1219.24 610.02 1216.36 625.22L1216.36 625.224C1212.98 643.063 1209.15 663.282 1192.19 688.1C1187.81 694.51 1190.5 703.2 1191.86 706.64C1195.21 715.11 1204.27 719.17 1211.55 722.43C1239.76 735.05 1265.65 752.03 1288.48 772.88ZM1236.61 583.99C1243.48 573.83 1264.93 549.13 1283.95 541.93C1295.71 537.48 1303.9 540.87 1308.98 552.29C1312.77 560.88 1312.61 570.53 1312.04 581.35C1308.78 643 1300.9 704.91 1288.6 765.43C1266.23 745.67 1241.1 729.48 1213.84 717.28C1207.16 714.29 1199.59 710.9 1197.08 704.56C1194.94 699.14 1194.84 694.16 1196.82 691.26C1214.44 665.47 1218.39 644.64 1221.87 626.26C1224.75 611.02 1227.25 597.85 1236.61 583.99Z" fill="#1A4A67"/>
<path d="M1319.88 568.22C1330.37 593.55 1322.43 623.22 1326.96 650.55C1331.49 677.88 1330.36 704.62 1336.73 731.65C1340.87 749.2 1344.33 766.88 1346.94 784.67C1347.13 786 1347.37 787.41 1348.35 788.41C1349.44 789.52 1351.19 789.84 1352.8 790.1C1367.89 792.54 1394.18 791.96 1403.31 804.65C1387.98 810.76 1368.46 808.6 1352.96 803.37C1355.73 806.18 1358.49 809 1361.26 811.81C1355.01 814.84 1347.19 812.11 1342.3 807.17C1337.41 802.23 1334.79 795.55 1332.3 789.07C1318.49 753.11 1303.58 717.66 1297.8 679.29C1294.53 657.59 1294.62 635.49 1289.91 614.02C1288.45 607.38 1286.53 600.74 1286.61 593.97C1286.74 583.09 1292.38 572.36 1301.61 565.43C1303.45 564.05 1305.48 562.79 1307.8 562.32C1312.04 561.45 1316.5 563.43 1319.42 566.36C1322.34 569.29 1324 573.05 1325.55 576.75" fill="white"/>
<path fill-rule="evenodd" clip-rule="evenodd" d="M1340.3 809.15C1343.99 812.87 1349.73 815.9 1355.6 815.9C1357.91 815.9 1360.25 815.43 1362.46 814.36L1365.98 812.65L1362.32 808.92C1377.74 812.35 1392.9 811.83 1404.33 807.27L1407.67 805.94L1405.57 803.02C1397.68 792.052 1379.11 790.161 1364.18 788.641L1364.17 788.64L1363.69 788.59C1359.89 788.199 1356.29 787.829 1353.23 787.33L1353.15 787.317C1352.19 787.158 1350.81 786.927 1350.33 786.44C1349.97 786.072 1349.82 785.07 1349.7 784.272L1349.7 784.26C1347.18 767.1 1343.73 749.19 1339.45 731C1335.86 715.77 1334.65 700.25 1333.49 685.23L1333.49 685.194C1332.6 673.755 1331.68 661.918 1329.72 650.09C1327.94 639.31 1328.14 627.86 1328.34 616.79L1328.34 616.749C1328.58 603.392 1328.83 589.677 1325.6 576.72L1328.14 575.66C1326.43 571.55 1324.62 567.59 1321.41 564.37C1317.48 560.42 1312.06 558.57 1307.24 559.56C1304.2 560.19 1301.74 561.82 1299.93 563.18C1289.98 570.65 1283.95 582.14 1283.81 593.93C1283.74 599.79 1285.06 605.47 1286.34 610.97C1286.38 611.162 1286.43 611.354 1286.47 611.546C1286.71 612.571 1286.94 613.592 1287.17 614.62C1289.9 627.08 1291.03 640.07 1292.11 652.63L1292.14 652.939C1292.9 661.723 1293.69 670.805 1295.03 679.71C1300.19 714.064 1312.79 746.531 1324.98 777.94L1325.02 778.04C1326.58 782.05 1328.14 786.06 1329.68 790.08L1329.68 790.081C1332.13 796.461 1334.91 803.7 1340.3 809.15ZM1308.37 565.08C1308.85 564.98 1309.35 564.93 1309.85 564.93C1312.45 564.93 1315.28 566.18 1317.45 568.35C1317.66 568.56 1317.86 568.77 1318.05 568.99L1317.29 569.3C1323.31 583.845 1323.03 599.776 1322.73 616.646L1322.73 616.7L1322.73 616.754C1322.53 628.057 1322.32 639.738 1324.19 651.01C1326.11 662.61 1327.02 674.33 1327.9 685.67C1329.08 700.9 1330.3 716.64 1333.99 732.29C1338.24 750.32 1341.66 768.08 1344.16 785.08C1344.37 786.52 1344.7 788.7 1346.34 790.37C1348.12 792.19 1350.67 792.6 1352.35 792.87C1355.62 793.396 1359.35 793.78 1363.31 794.187L1363.63 794.22C1375.78 795.46 1390.57 796.97 1398.3 803.4C1385.91 806.98 1369.65 806.04 1353.86 800.71L1342.68 796.94L1355.79 810.27C1351.56 810.31 1347.19 808.12 1344.3 805.2C1339.74 800.6 1337.18 793.94 1334.93 788.07C1333.66 784.763 1332.38 781.469 1331.1 778.172C1330.82 777.452 1330.54 776.731 1330.26 776.01L1330.2 775.864C1318.13 744.749 1305.65 712.587 1300.58 678.87C1299.26 670.107 1298.48 661.099 1297.73 652.371L1297.71 652.14C1296.61 639.4 1295.47 626.23 1292.66 613.41C1292.39 612.17 1292.1 610.93 1291.81 609.69C1290.55 604.29 1289.36 599.18 1289.43 594C1289.55 583.95 1294.74 574.11 1303.31 567.68C1304.64 566.68 1306.43 565.48 1308.37 565.08Z" fill="#1A4A67"/>
<path d="M1054.23 840.14L1048.46 894.75L1066.52 898.56L1069.16 841.22C1069.15 841.22 1059.59 837.72 1054.23 840.14Z" fill="white"/>
<path fill-rule="evenodd" clip-rule="evenodd" d="M1045.39 896.98L1069.17 901.99L1072.05 839.29L1070.11 838.58C1069.02 838.18 1059.3 834.78 1053.07 837.58L1051.6 838.24L1045.39 896.98ZM1063.86 895.12L1051.52 892.52L1056.83 842.26C1059.51 841.77 1063.36 842.42 1066.25 843.23L1063.86 895.12Z" fill="#1A4A67"/>
<path d="M979.48 923.71C979.48 923.71 993.01 926.71 1018.2 925.77C1043.39 924.83 1071.37 922.66 1076.02 918.38C1080.68 914.11 1080.42 882.23 1072.09 883.16C1063.76 884.09 1061.87 896.5 1045.99 887.39C1032.38 879.58 1024.27 898.07 1002.89 905.15C981.49 912.22 972.83 915.06 979.48 923.71Z" fill="white"/>
<path fill-rule="evenodd" clip-rule="evenodd" d="M978.86 926.45C979.35 926.56 989.56 928.76 1008.58 928.76C1011.6 928.76 1014.84 928.71 1018.29 928.57C1053.39 927.27 1073.45 924.53 1077.91 920.44C1082.97 915.81 1082.97 894.24 1079.05 885.61C1076.76 880.58 1073.47 880.17 1071.77 880.36C1068.21 880.756 1065.66 882.729 1063.41 884.476L1063.34 884.53C1059.38 887.61 1056.25 890.04 1047.37 884.94C1037.77 879.427 1030.2 885.026 1022.19 890.948L1022.16 890.97L1022.15 890.979C1016.62 895.067 1010.35 899.702 1001.84 902.52L1001.71 902.563C984.957 908.114 976.535 910.905 974.77 916.66C973.95 919.33 974.76 922.2 977.24 925.42L977.86 926.23L978.86 926.45ZM1018.09 922.96C997.45 923.73 984.66 921.8 981.1 921.16C980.45 920.17 979.92 919.07 980.17 918.3C981.088 915.316 990.997 912.034 1003.7 907.827L1003.78 907.8C1013 904.75 1019.95 899.62 1025.53 895.49C1034.08 889.17 1038.46 886.3 1044.6 889.82C1056.76 896.8 1062.57 892.27 1066.81 888.96L1066.85 888.929C1068.75 887.452 1070.39 886.178 1072.4 885.95C1072.67 885.91 1073.18 886.38 1073.83 887.72C1077.64 895.58 1076.29 914.12 1074.12 916.31C1071.72 918.51 1055.61 921.57 1018.09 922.96Z" fill="#1A4A67"/>
<path d="M1285.1 717.22C1292.18 720.06 1299.43 723.97 1302.95 730.74C1304.97 734.64 1305.55 739.11 1305.87 743.49C1307.13 760.56 1304.35 779.32 1292.06 791.25C1286.05 797.08 1278.29 800.75 1270.49 803.83C1252.03 811.12 1231.68 815.7 1212.33 811.29C1191.05 806.44 1173.6 791.38 1159.01 775.14C1146.61 761.34 1135.57 746.31 1126.11 730.35C1120.82 721.43 1115.12 711.45 1105.25 708.26C1097.49 731.77 1103.15 757.47 1100.47 782.08C1098.95 796.05 1094.74 809.63 1093.34 823.61C1091.94 837.59 1093.8 852.78 1102.87 863.51C1095.26 870.73 1083.07 867.83 1072.75 865.91C1059.89 863.53 1046.6 863.48 1033.73 865.77C1030.46 866.35 1026.71 866.97 1024.14 864.86C1022.02 863.12 1021.51 860.09 1021.63 857.36C1022.05 848.15 1027.89 840.18 1030.86 831.45C1034.37 821.14 1033.82 809.98 1034.36 799.1C1036.15 762.83 1050.37 727.96 1051.48 691.67C1051.8 681.27 1051.04 670.75 1053.18 660.57C1055.32 650.39 1061.02 640.26 1070.54 636.06C1081.68 631.15 1096.68 631.87 1105.88 639.84C1111.54 644.74 1170.66 682.72 1221.57 706.96C1241.99 716.68 1264.15 708.79 1285.1 717.22Z" fill="white"/>
<path fill-rule="evenodd" clip-rule="evenodd" d="M1074.41 869.082C1079.05 869.957 1084.21 870.93 1089.23 870.93C1094.95 870.93 1100.49 869.66 1104.84 865.59L1106.76 863.76L1105.04 861.73C1095.69 850.67 1095.05 835.06 1096.16 823.92C1096.86 816.945 1098.31 809.89 1099.72 803.063L1099.73 802.99L1099.77 802.796C1101.14 796.157 1102.55 789.313 1103.29 782.41C1104.34 772.79 1104.14 762.95 1103.94 753.44C1103.64 738.95 1103.36 725.2 1107.07 712.04C1114.12 715.601 1118.77 723.431 1123.28 731.033L1123.31 731.09L1123.73 731.8C1133.28 747.91 1144.46 763.12 1156.96 777.04C1175.87 798.08 1193.27 809.84 1211.75 814.05C1229.08 817.99 1248.64 815.52 1271.56 806.46C1278.99 803.52 1287.47 799.66 1294.05 793.28C1308.19 779.55 1309.82 758.52 1308.7 743.3C1308.36 738.69 1307.74 733.82 1305.47 729.46C1301.35 721.53 1292.99 717.37 1286.17 714.63C1275.63 710.39 1264.87 710.1 1254.47 709.82L1254.44 709.819C1243.35 709.52 1232.87 709.236 1222.82 704.45C1172.25 680.37 1113.01 642.29 1107.76 637.74C1098.26 629.5 1082.51 627.76 1069.45 633.51C1060.07 637.64 1053.15 647.3 1050.47 660.01C1048.85 667.717 1048.83 675.603 1048.81 683.23L1048.81 683.24C1048.8 686.03 1048.79 688.82 1048.71 691.6C1048.15 709.97 1044.09 728.4 1040.16 746.22C1036.38 763.36 1032.47 781.09 1031.59 798.98C1031.49 800.963 1031.43 802.96 1031.37 804.96C1031.36 805.29 1031.35 805.62 1031.34 805.95C1031.1 814.63 1030.87 822.83 1028.24 830.56C1027.25 833.46 1025.94 836.26 1024.55 839.22L1024.55 839.224C1021.9 844.863 1019.16 850.692 1018.86 857.25C1018.66 861.6 1019.88 864.99 1022.39 867.05C1026 870.02 1030.77 869.17 1034.25 868.55L1034.25 868.55C1046.88 866.3 1059.67 866.35 1072.27 868.68L1074.29 869.06L1074.41 869.082ZM1073.28 863.15C1066.52 861.9 1059.7 861.27 1052.88 861.27C1046.33 861.27 1039.77 861.85 1033.26 863L1033.2 863.01C1030.67 863.458 1027.56 864.01 1025.95 862.69C1024.5 861.51 1024.39 858.92 1024.46 857.49C1024.71 852.085 1027.08 847.026 1029.59 841.673L1029.62 841.6C1031.02 838.63 1032.46 835.56 1033.55 832.36C1036.44 823.847 1036.7 814.866 1036.95 806.171L1036.95 806.09C1037.01 803.8 1037.08 801.51 1037.19 799.24C1038.05 781.82 1041.9 764.33 1045.63 747.41C1049.62 729.33 1053.74 710.64 1054.31 691.75C1054.39 689.204 1054.4 686.641 1054.41 684.084C1054.41 683.799 1054.41 683.515 1054.41 683.23C1054.43 675.54 1054.45 668.29 1055.95 661.14C1058.22 650.38 1064.1 641.97 1071.7 638.62C1082.65 633.8 1096.26 635.2 1104.06 641.96C1110.08 647.17 1169.18 685.11 1220.39 709.49C1231.52 714.79 1243.11 715.11 1254.31 715.41C1264.67 715.69 1274.46 715.96 1284.07 719.82C1289.99 722.2 1297.2 725.74 1300.47 732.03C1302.26 735.49 1302.78 739.68 1303.08 743.69C1304.12 757.72 1302.71 777 1290.12 789.22C1284.26 794.91 1276.4 798.47 1269.48 801.2C1247.64 809.82 1229.16 812.22 1212.98 808.53C1195.69 804.59 1179.21 793.38 1161.12 773.25C1148.87 759.6 1137.91 744.68 1128.55 728.9L1128.13 728.19L1128.12 728.171C1122.78 719.176 1116.74 708.998 1106.13 705.57L1103.47 704.71L1102.6 707.36C1097.67 722.32 1097.99 738.18 1098.31 753.52L1098.32 753.828C1098.5 763.062 1098.7 772.602 1097.7 781.76C1096.96 788.46 1095.57 795.25 1094.22 801.81C1092.77 808.8 1091.29 816.03 1090.56 823.32C1089.41 834.82 1090.03 850.72 1098.94 863.02C1092.82 866.839 1083.94 865.161 1075.32 863.531L1075.32 863.53L1073.28 863.15Z" fill="#1A4A67"/>
<path d="M1283.07 497.97L1289.93 548.21C1302.06 551.78 1314.77 558.59 1327.55 558.57C1326.97 549.25 1317.85 538.59 1313.66 529.8C1308.58 519.13 1321.01 494.95 1321.58 482.98C1323.05 451.71 1283.07 497.97 1283.07 497.97Z" fill="white"/>
<path fill-rule="evenodd" clip-rule="evenodd" d="M1300.27 554.757C1309.06 558.015 1318.15 561.38 1327.49 561.38H1327.53H1330.52L1330.34 558.4C1329.91 551.44 1325.53 544.35 1321.29 537.49L1321.22 537.373C1319.29 534.256 1317.47 531.306 1316.18 528.59C1313.49 522.948 1317 511.431 1320.1 501.26L1320.11 501.22L1320.15 501.083C1322.21 494.324 1324.14 487.957 1324.37 483.11C1324.71 475.87 1322.92 471.41 1319.03 469.86C1308.43 465.62 1287.19 488.89 1280.94 496.13L1280.11 497.09L1283.71 523.47C1287.4 550.48 1287.4 550.48 1289.13 550.91C1292.76 551.97 1296.4 553.32 1300.25 554.75L1300.27 554.757ZM1301.85 549.348C1298.76 548.209 1295.6 547.042 1292.47 546.05C1291.85 541.514 1290.15 529.038 1288.63 517.879C1287.48 509.456 1286.43 501.782 1286.03 498.84C1297.49 485.8 1312.27 473.21 1316.96 475.07C1318.3 475.61 1318.97 478.51 1318.77 482.84C1318.57 487.02 1316.71 493.12 1314.74 499.58C1311.17 511.28 1307.49 523.38 1311.12 531C1312.51 533.918 1314.35 536.91 1316.3 540.075C1316.37 540.196 1316.44 540.318 1316.52 540.44C1319.69 545.56 1322.94 550.82 1324.21 555.6C1316.94 554.933 1309.51 552.183 1302.3 549.514L1302.21 549.48L1301.85 549.348Z" fill="#1A4A67"/>
<path d="M1271.95 422.17C1265.85 420.52 1248.39 427.08 1245.55 432.72C1238.67 446.38 1243.88 462.28 1242.24 478.33C1241.14 489.1 1248.83 511.11 1257.18 519.84C1269.54 532.76 1285.1 515.29 1294.44 504.5C1307.61 489.29 1313.34 469.06 1311.54 449.02C1310.89 441.81 1308.94 434.22 1303.55 429.39C1298.36 424.74 1291.03 423.54 1284.14 422.53C1279.86 421.91 1276.13 423.3 1271.95 422.17Z" fill="white"/>
<path fill-rule="evenodd" clip-rule="evenodd" d="M1255.15 521.79C1258.6 525.4 1262.57 527.23 1266.94 527.23H1267.33C1278.72 526.94 1289.88 514.063 1296.55 506.362L1296.56 506.35C1309.77 491.08 1316.25 470.1 1314.34 448.78C1313.46 438.92 1310.55 431.89 1305.43 427.31C1299.43 421.94 1291.18 420.73 1284.55 419.76C1282.34 419.44 1280.37 419.57 1278.46 419.7C1276.37 419.84 1274.56 419.96 1272.69 419.46C1265.53 417.54 1246.61 424.38 1243.05 431.46C1238.34 440.798 1238.89 451.081 1239.42 461.039L1239.42 461.11C1239.72 466.67 1240.02 472.42 1239.45 478.05C1238.24 489.81 1246.46 512.71 1255.15 521.79ZM1248.06 433.99C1249.96 430.21 1263.26 424.7 1269.51 424.7C1270.17 424.7 1270.74 424.76 1271.22 424.88C1273.97 425.626 1276.43 425.462 1278.8 425.302L1278.84 425.3C1280.53 425.18 1282.12 425.07 1283.74 425.31C1289.62 426.17 1296.94 427.25 1301.68 431.49C1305.68 435.08 1307.99 440.9 1308.74 449.28C1310.51 469.09 1304.53 488.55 1292.31 502.67L1292.31 502.672C1286.65 509.213 1276.11 521.39 1267.19 521.61C1264.29 521.68 1261.66 520.47 1259.21 517.91C1251.69 510.04 1244 488.74 1245.04 478.62C1245.66 472.56 1245.34 466.59 1245.03 460.81C1244.51 451.14 1244.02 442.01 1248.06 433.99Z" fill="#1A4A67"/>
<path d="M1404.2 649.35C1402 649.21 1399.94 648.77 1398.51 647.21C1396.03 644.51 1396.86 640.29 1396.41 636.66C1395.41 628.67 1388.89 622.87 1388.43 614.67C1387.89 605.12 1393.65 596.4 1390.63 586.67C1387.59 576.87 1379.3 567.41 1372.62 559.88C1367.13 553.69 1359.4 548.8 1355.81 541.1C1352.43 533.86 1355.1 525.75 1356.22 518.32C1357.45 510.18 1353.8 505.94 1353.07 498.19C1352.58 492.93 1355.42 488.02 1354.95 482.79C1355.68 479.62 1356.34 476.34 1356.84 473.15C1358.96 459.67 1345.6 452.33 1338.97 443.17C1332.01 433.56 1338.82 416.94 1330.78 405.59C1320.07 390.46 1297.43 388.37 1280.67 391.7C1268.32 394.15 1263.07 401.85 1254.14 409.47C1250.34 412.71 1244.91 413.36 1240.61 415.72C1234.29 419.19 1230.12 424.46 1227.15 431.25C1226.4 432.97 1225.99 434.89 1226.05 436.74C1226.11 438.52 1226.6 440.25 1227.64 441.7C1230.74 446.01 1237.21 446.12 1242.24 444.44C1262.58 437.67 1290.3 438.84 1290.9 467.16C1291.16 479.25 1285.84 490.75 1284.3 502.66C1282.6 515.9 1299.47 521.64 1304.67 531.49C1309.73 541.07 1313.18 553.58 1313.03 564.53C1313.03 564.53 1304.48 579.25 1305.32 595.22C1305.98 607.87 1313.93 607.83 1320.68 612.42C1324.83 615.24 1322.5 627.2 1323.54 631.41C1325.53 639.52 1332.22 644.9 1334.86 652.65C1337.71 661.03 1337.37 666.46 1345.55 672.09C1362.8 683.96 1386.01 681.08 1402.74 669.66C1406.62 667.01 1415.84 660.61 1415.3 654.85C1414.69 648.48 1409.11 649.67 1404.2 649.35Z" fill="#1A4A67"/>
</svg>
